<svg width="16" height="19" viewBox="0 0 16 19" fill="none" xmlns="http://www.w3.org/2000/svg">
<path d="M11.1344 13.446L11.883 11.8591C11.9032 11.8137 11.9362 11.7751 11.9778 11.7481C12.0195 11.7211 12.0681 11.7067 12.1177 11.7067C12.1674 11.7067 12.216 11.7211 12.2577 11.7481C12.2993 11.7751 12.3322 11.8137 12.3524 11.8591L13.1019 13.446L14.7753 13.7021C14.9902 13.735 15.0759 14.0118 14.921 14.1699L13.7096 15.4052L13.9954 17.1494C14.0316 17.3734 13.8068 17.5447 13.6149 17.4385L12.1177 16.6149L10.6206 17.4385C10.4279 17.5447 10.2039 17.3734 10.2401 17.1494L10.5259 15.4052L9.31527 14.1699C9.1588 14.0118 9.24527 13.735 9.46021 13.7021L11.1344 13.4468V13.446Z" stroke="#009BFA" stroke-width="1.5" stroke-linecap="round" stroke-linejoin="round"/>
<path d="M14.1765 9.23528V4.08741C14.1765 4.0224 14.1637 3.95802 14.1389 3.89797C14.114 3.83791 14.0775 3.78334 14.0315 3.73741L11.439 1.14494C11.3465 1.05225 11.2209 1.00012 11.0899 1H1.49412C1.36307 1 1.23739 1.05206 1.14472 1.14472C1.05206 1.23739 1 1.36307 1 1.49412V16.9764C1 17.1075 1.05206 17.2332 1.14472 17.3258C1.23739 17.4185 1.36307 17.4706 1.49412 17.4706H6.7647" stroke="#009BFA" stroke-width="1.5" stroke-linecap="round" stroke-linejoin="round"/>
<path d="M10.8823 3.79996V1.2915C10.8824 1.23391 10.8996 1.17765 10.9316 1.12981C10.9637 1.08196 11.0092 1.04467 11.0624 1.02265C11.1156 1.00063 11.1741 0.994856 11.2306 1.00606C11.2871 1.01727 11.339 1.04495 11.3797 1.08562L14.0908 3.79667C14.1319 3.83728 14.1599 3.88921 14.1713 3.94583C14.1828 4.00245 14.1771 4.06119 14.155 4.11456C14.1329 4.16793 14.0954 4.21351 14.0473 4.24548C13.9992 4.27746 13.9427 4.29438 13.8849 4.29408H11.3764C11.2454 4.29408 11.1197 4.24202 11.027 4.14936C10.9344 4.05669 10.8823 3.93101 10.8823 3.79996Z" fill="white" stroke="#009BFA" stroke-width="1.5" stroke-linecap="round" stroke-linejoin="round"/>
</svg>
