<svg width="59" height="72" viewBox="0 0 59 72" fill="none" xmlns="http://www.w3.org/2000/svg">
<path d="M1.10645 8.02615V64.003C1.10645 65.8587 1.84364 67.6384 3.15585 68.9507C4.46806 70.2629 6.2478 71.0001 8.10355 71.0001H50.0862C51.9419 71.0001 53.7216 70.2629 55.0338 68.9507C56.3461 67.6384 57.0833 65.8587 57.0833 64.003V23.2169C57.0831 22.2847 56.8968 21.362 56.5351 20.5028C56.1734 19.6437 55.6437 18.8655 54.9771 18.2139L39.4436 3.02323C38.1364 1.74506 36.3808 1.02928 34.5526 1.02905H8.10355C6.2478 1.02905 4.46806 1.76624 3.15585 3.07846C1.84364 4.39067 1.10645 6.17041 1.10645 8.02615V8.02615Z" stroke="#18369B" stroke-width="2" stroke-linecap="round" stroke-linejoin="round"/>
<path d="M36.0918 1.02905V15.0233C36.0918 16.879 36.829 18.6587 38.1412 19.971C39.4534 21.2832 41.2332 22.0204 43.0889 22.0204H57.0831" stroke="#18369B" stroke-width="2" stroke-linejoin="round"/>
</svg>
