<svg width="27" height="29" viewBox="0 0 27 29" fill="none" xmlns="http://www.w3.org/2000/svg">
<path d="M13.5 0C12.0166 0 10.5666 0.447584 9.33322 1.28615C8.09985 2.12472 7.13856 3.31661 6.5709 4.7111C6.00325 6.10559 5.85472 7.64004 6.14411 9.12043C6.4335 10.6008 7.14781 11.9606 8.1967 13.0279C9.24559 14.0952 10.582 14.8221 12.0368 15.1165C13.4917 15.411 14.9997 15.2599 16.3701 14.6822C17.7406 14.1046 18.9119 13.1265 19.736 11.8715C20.5601 10.6165 21 9.14096 21 7.63158C21 5.60756 20.2098 3.66644 18.8033 2.23524C17.3968 0.804039 15.4891 0 13.5 0ZM13.5 12.2105C12.61 12.2105 11.74 11.942 10.9999 11.4388C10.2599 10.9357 9.68314 10.2206 9.34254 9.38387C9.00195 8.54717 8.91283 7.6265 9.08647 6.73827C9.2601 5.85004 9.68868 5.03415 10.318 4.39377C10.9474 3.7534 11.7492 3.31729 12.6221 3.14062C13.495 2.96394 14.3998 3.05461 15.2221 3.40118C16.0443 3.74775 16.7471 4.33465 17.2416 5.08765C17.7361 5.84066 18 6.72595 18 7.63158C18 8.84599 17.5259 10.0107 16.682 10.8694C15.8381 11.7281 14.6935 12.2105 13.5 12.2105ZM27 29V27.4737C27 24.6401 25.8938 21.9225 23.9246 19.9188C21.9555 17.9151 19.2848 16.7895 16.5 16.7895H10.5C7.71523 16.7895 5.04451 17.9151 3.07538 19.9188C1.10625 21.9225 0 24.6401 0 27.4737V29H3V27.4737C3 25.4497 3.79018 23.5085 5.1967 22.0773C6.60322 20.6461 8.51088 19.8421 10.5 19.8421H16.5C18.4891 19.8421 20.3968 20.6461 21.8033 22.0773C23.2098 23.5085 24 25.4497 24 27.4737V29H27Z" fill="#009BFA"/>
</svg>
